# xmcd
# 
# Track frame offsets:
#     150
#     26992
#     43037
#     70977
#     87585
#     106502
#     132825
#     143607
#     162850
#     192600
#     210837
#     229805
#     263940
# 
# Disc length: 3836
# 
# Revision: 2
# Processed by: cddbd v1.5.2PL0 Copyright (c) Steve Scherf et al.
# Submitted via: fre:ac v1.0.31
# 
DISCID=b50efa0d
DTITLE=Bill_EVANS - Warner_Jazz_Les_Incontournables
DYEAR=1996
DGENRE=Jazz
TTITLE0=Theme_From_MASH_(Suicide_Is_Painless)
TTITLE1=This is all I ask
TTITLE2=Israel
TTITLE3=Since we met
TTITLE4=Oleo
TTITLE5=Elsa
TTITLE6=Days of wine and roses
TTITLE7=Venutian Rhythm Dance
TTITLE8=Up with the lark
TTITLE9=Love is here to stay
TTITLE10=Jade Visions (Take 1)
TTITLE11=A Child is born
TTITLE12=Re: Person I Knew
EXTD=
EXTT0=
EXTT1=
EXTT2=
EXTT3=
EXTT4=
EXTT5=
EXTT6=
EXTT7=
EXTT8=
EXTT9=
EXTT10=
EXTT11=
EXTT12=
PLAYORDER=
